<svg width="64" height="64" viewBox="0 0 64 64" fill="none" xmlns="http://www.w3.org/2000/svg">
<circle cx="32" cy="32" r="32" fill="#FFF6E8"/>
<path fill-rule="evenodd" clip-rule="evenodd" d="M42.4134 22.5611L45.0852 27.0882C46.5025 29.4891 48.0874 32.1727 48.7666 33.3182C49.1254 33.9047 49.2958 34.5871 49.2547 35.2735C49.0223 39.4919 45.6089 42.8359 41.3862 42.9813C41.3579 42.9823 41.3296 42.9823 41.3013 42.9813C37.0769 42.8397 33.6602 39.4958 33.4271 35.2762C33.3829 34.5862 33.5515 33.8993 33.9102 33.3083L40.2606 22.5605C40.4856 22.1797 40.895 21.9462 41.3372 21.9463C41.7794 21.9465 42.1887 22.1803 42.4134 22.5611ZM41.3361 25.6547L36.0489 34.603C35.9545 34.7576 35.9101 34.9377 35.9221 35.1185L35.9231 35.1334C36.0817 38.0484 38.4304 40.362 41.3427 40.4812C44.2532 40.3595 46.5996 38.0466 46.7586 35.1332L46.7591 35.1251C46.7699 34.9478 46.7257 34.7715 46.6324 34.6204L46.6209 34.6016C45.943 33.4583 44.3526 30.7651 42.9323 28.3591L41.3361 25.6547Z" fill="#FBAB34"/>
<path fill-rule="evenodd" clip-rule="evenodd" d="M33.4825 34.5339C33.4825 33.8435 34.0421 33.2839 34.7325 33.2839H47.9428C48.6331 33.2839 49.1928 33.8435 49.1928 34.5339C49.1928 35.2242 48.6331 35.7839 47.9428 35.7839H34.7325C34.0421 35.7839 33.4825 35.2242 33.4825 34.5339Z" fill="#FBAB34"/>
<path fill-rule="evenodd" clip-rule="evenodd" d="M22.6685 27.4158C23.1108 27.4159 23.5201 27.6497 23.7448 28.0306L30.0938 38.7915C30.4502 39.3801 30.6175 40.0638 30.5732 40.7504C30.3418 44.9681 26.9283 48.3119 22.7059 48.4556C22.6779 48.4566 22.6499 48.4566 22.6219 48.4556C18.3957 48.3151 14.9771 44.9694 14.7453 40.7473L14.7456 40.7527C14.7046 40.0589 14.879 39.3695 15.2447 38.7789L21.5919 28.0302C21.8168 27.6494 22.2262 27.4157 22.6685 27.4158ZM22.6678 31.1249L17.3899 40.0627L17.3727 40.091C17.2765 40.2445 17.2306 40.4241 17.2413 40.6049L17.2416 40.6103C17.4016 43.5249 19.751 45.8373 22.663 45.9555C25.5735 45.8351 27.92 43.5217 28.0772 40.6083L28.0781 40.5918C28.0901 40.4138 28.0467 40.2364 27.9539 40.084L27.9446 40.0688L22.6678 31.1249Z" fill="#FBAB34"/>
<path fill-rule="evenodd" clip-rule="evenodd" d="M14.8075 40.0033C14.8075 39.313 15.3671 38.7533 16.0575 38.7533H29.2678C29.9581 38.7533 30.5178 39.313 30.5178 40.0033C30.5178 40.6937 29.9581 41.2533 29.2678 41.2533H16.0575C15.3671 41.2533 14.8075 40.6937 14.8075 40.0033Z" fill="#FBAB34"/>
<path fill-rule="evenodd" clip-rule="evenodd" d="M42.5364 22.845C42.7305 23.5075 42.3507 24.2019 41.6882 24.3959L23.0148 29.8654C22.3523 30.0595 21.6579 29.6797 21.4638 29.0172C21.2698 28.3547 21.6495 27.6603 22.3121 27.4662L40.9854 21.9967C41.648 21.8027 42.3424 22.1824 42.5364 22.845Z" fill="#FBAB34"/>
<path fill-rule="evenodd" clip-rule="evenodd" d="M30.6668 18.745C31.3571 18.745 31.9168 19.3046 31.9168 19.995V26.3224C31.9168 27.0128 31.3571 27.5724 30.6668 27.5724C29.9764 27.5724 29.4168 27.0128 29.4168 26.3224V19.995C29.4168 19.3046 29.9764 18.745 30.6668 18.745Z" fill="#FBAB34"/>
</svg>
