<svg width="95" height="19" viewBox="0 0 95 19" fill="none" xmlns="http://www.w3.org/2000/svg">
<path d="M49.0675 11.1227C49.0675 10.8723 49.0281 10.6476 48.9493 10.4486C48.8771 10.2431 48.7391 10.0569 48.5356 9.89002C48.332 9.71667 48.0463 9.54655 47.6786 9.37963C47.3108 9.2127 46.8347 9.03936 46.2503 8.8596C45.6001 8.65416 44.9829 8.42304 44.3984 8.16624C43.8205 7.90944 43.3083 7.61091 42.8617 7.27065C42.4217 6.92397 42.0737 6.52272 41.8176 6.0669C41.568 5.61108 41.4433 5.08143 41.4433 4.47795C41.4433 3.89373 41.5746 3.36408 41.8373 2.889C42.1 2.4075 42.4677 1.99662 42.9405 1.65636C43.4134 1.30968 43.9715 1.04325 44.6151 0.85707C45.2652 0.67089 45.9777 0.5778 46.7526 0.5778C47.8099 0.5778 48.7326 0.76398 49.5206 1.13634C50.3086 1.5087 50.9194 2.01909 51.3528 2.66751C51.7928 3.31593 52.0128 4.05744 52.0128 4.89204H49.0773C49.0773 4.48116 48.9887 4.12164 48.8114 3.81348C48.6406 3.4989 48.378 3.25173 48.0233 3.07197C47.6753 2.89221 47.2353 2.80233 46.7034 2.80233C46.1912 2.80233 45.7643 2.87937 45.4228 3.03345C45.0814 3.18111 44.8252 3.38334 44.6545 3.64014C44.4838 3.89052 44.3984 4.173 44.3984 4.48758C44.3984 4.72512 44.4575 4.94019 44.5757 5.13279C44.7005 5.32539 44.8843 5.50515 45.1273 5.67207C45.3703 5.83899 45.6691 5.99628 46.0237 6.14394C46.3783 6.2916 46.7888 6.43605 47.255 6.57729C48.0365 6.80841 48.7227 7.06842 49.3138 7.35732C49.9113 7.64622 50.4104 7.97043 50.811 8.32995C51.2116 8.68948 51.5137 9.09715 51.7173 9.55297C51.9208 10.0088 52.0226 10.5256 52.0226 11.1034C52.0226 11.7133 51.9011 12.259 51.6582 12.7405C51.4152 13.222 51.0638 13.6297 50.6042 13.9635C50.1445 14.2973 49.5961 14.5509 48.9591 14.7243C48.3221 14.8976 47.6096 14.9843 46.8216 14.9843C46.1124 14.9843 45.413 14.8944 44.7235 14.7146C44.0339 14.5285 43.4068 14.2492 42.842 13.8768C42.2838 13.5045 41.8373 13.0294 41.5024 12.4516C41.1675 11.8738 41 11.1901 41 10.4004H43.965C43.965 10.837 44.0339 11.2061 44.1718 11.5079C44.3097 11.8096 44.5035 12.0536 44.753 12.2397C45.0091 12.4259 45.3112 12.5607 45.6592 12.6442C46.0139 12.7277 46.4013 12.7694 46.8216 12.7694C47.3338 12.7694 47.7541 12.6988 48.0825 12.5575C48.4174 12.4163 48.6636 12.2205 48.8212 11.9701C48.9854 11.7197 49.0675 11.4372 49.0675 11.1227Z" fill="#8C8A97"/>
<path d="M57.0168 13.6168L59.8439 4.37202H62.8876L58.6027 16.3614C58.5108 16.6246 58.386 16.9071 58.2284 17.2088C58.0773 17.5106 57.8705 17.7962 57.6078 18.0659C57.3517 18.3419 57.0266 18.5667 56.6326 18.74C56.2452 18.9133 55.7691 19 55.2043 19C54.9351 19 54.7151 18.9839 54.5443 18.9519C54.3736 18.9198 54.17 18.8748 53.9336 18.817V16.7851C54.0058 16.7851 54.0814 16.7851 54.1602 16.7851C54.239 16.7915 54.3145 16.7947 54.3867 16.7947C54.761 16.7947 55.0664 16.753 55.3028 16.6695C55.5392 16.5861 55.7297 16.4577 55.8741 16.2843C56.0186 16.1174 56.1335 15.8991 56.2189 15.6295L57.0168 13.6168ZM55.8347 4.37202L58.1496 11.9219L58.5534 14.8591L56.6228 15.0613L52.791 4.37202H55.8347Z" fill="#8C8A97"/>
<path d="M66.7982 6.59655V14.7917H63.9613V4.37202H66.6209L66.7982 6.59655ZM66.3845 9.21591H65.6162C65.6162 8.44551 65.718 7.75215 65.9216 7.13583C66.1251 6.51309 66.4108 5.98344 66.7785 5.54688C67.1463 5.1039 67.583 4.76685 68.0887 4.53573C68.6009 4.29819 69.1722 4.17942 69.8026 4.17942C70.3017 4.17942 70.7581 4.25004 71.1718 4.39128C71.5856 4.53252 71.9402 4.75722 72.2357 5.06538C72.5378 5.37354 72.7676 5.78121 72.9252 6.28839C73.0894 6.79557 73.1715 7.4151 73.1715 8.14698V14.7917H70.3148V8.13735C70.3148 7.67511 70.2492 7.31559 70.1178 7.05879C69.9865 6.80199 69.7928 6.62223 69.5367 6.51951C69.2871 6.41037 68.9785 6.3558 68.6107 6.3558C68.2298 6.3558 67.8982 6.42963 67.6158 6.57729C67.34 6.72495 67.1102 6.93039 66.9263 7.19361C66.749 7.45041 66.6144 7.75215 66.5224 8.09883C66.4305 8.44551 66.3845 8.81787 66.3845 9.21591Z" fill="#8C8A97"/>
<path d="M79.7318 12.8175C80.0799 12.8175 80.3885 12.7533 80.6578 12.6249C80.927 12.4901 81.1372 12.3039 81.2882 12.0664C81.4458 11.8224 81.5279 11.5367 81.5345 11.2093H84.2039C84.1974 11.9412 83.9971 12.5928 83.6031 13.1642C83.209 13.7292 82.6804 14.1754 82.0171 14.5028C81.3539 14.8238 80.6118 14.9843 79.791 14.9843C78.9635 14.9843 78.2412 14.8495 77.6239 14.5798C77.0131 14.3102 76.5042 13.9378 76.097 13.4627C75.6899 12.9812 75.3845 12.4227 75.181 11.7871C74.9774 11.1451 74.8756 10.4582 74.8756 9.72631V9.44703C74.8756 8.70873 74.9774 8.02179 75.181 7.38621C75.3845 6.74421 75.6899 6.18567 76.097 5.71059C76.5042 5.22909 77.0131 4.85352 77.6239 4.58388C78.2346 4.31424 78.9504 4.17942 79.7713 4.17942C80.6447 4.17942 81.4097 4.34313 82.0664 4.67055C82.7297 4.99797 83.2485 5.46663 83.6228 6.07653C84.0036 6.68001 84.1974 7.39584 84.2039 8.22402H81.5345C81.5279 7.87734 81.4524 7.56276 81.3079 7.28028C81.17 6.9978 80.9664 6.7731 80.6972 6.60618C80.4345 6.43284 80.1094 6.34617 79.722 6.34617C79.3083 6.34617 78.9701 6.43284 78.7074 6.60618C78.4447 6.7731 78.2412 7.00422 78.0967 7.29954C77.9522 7.58844 77.8504 7.91907 77.7913 8.29143C77.7388 8.65737 77.7125 9.04257 77.7125 9.44703V9.72631C77.7125 10.1308 77.7388 10.5192 77.7913 10.8915C77.8439 11.2639 77.9424 11.5945 78.0868 11.8834C78.2379 12.1723 78.4447 12.4002 78.7074 12.5672C78.9701 12.7341 79.3116 12.8175 79.7318 12.8175Z" fill="#8C8A97"/>
<path d="M88.6169 0V14.7917H85.78V0H88.6169ZM88.2131 9.21591H87.4349C87.4414 8.49045 87.5399 7.82277 87.7304 7.21287C87.9208 6.59655 88.1934 6.06369 88.548 5.61429C88.9026 5.15847 89.3262 4.80537 89.8187 4.55499C90.3178 4.30461 90.8694 4.17942 91.4735 4.17942C91.9989 4.17942 92.475 4.25325 92.9019 4.40091C93.3353 4.54215 93.7063 4.77327 94.015 5.09427C94.3302 5.40885 94.5731 5.82294 94.7439 6.33654C94.9146 6.85014 95 7.47288 95 8.20476V14.7917H92.1434V8.1855C92.1434 7.72326 92.0744 7.36053 91.9365 7.09731C91.8052 6.82767 91.6115 6.63828 91.3553 6.52914C91.1058 6.41358 90.7972 6.3558 90.4294 6.3558C90.0223 6.3558 89.6742 6.42963 89.3853 6.57729C89.1029 6.72495 88.8763 6.93039 88.7056 7.19361C88.5348 7.45041 88.4101 7.75215 88.3313 8.09883C88.2525 8.44551 88.2131 8.81787 88.2131 9.21591Z" fill="#8C8A97"/>
<path d="M8.67318 10.0654H11.5935C11.5349 11.0268 11.2712 11.8803 10.8024 12.6259C10.3401 13.3715 9.69221 13.9536 8.85875 14.3721C8.03181 14.7907 7.03556 15 5.87002 15C4.95843 15 4.14125 14.843 3.41848 14.5291C2.69572 14.2086 2.07713 13.7508 1.56273 13.1557C1.05485 12.5605 0.667418 11.8411 0.400451 10.9974C0.133484 10.1537 0 9.20863 0 8.1622V7.17135C0 6.12492 0.136739 5.17986 0.410218 4.33617C0.690208 3.48594 1.0874 2.76324 1.6018 2.16808C2.12271 1.57292 2.74455 1.11511 3.46732 0.794637C4.19008 0.474166 4.9975 0.313931 5.88956 0.313931C7.07463 0.313931 8.07413 0.529758 8.88805 0.961413C9.70849 1.39307 10.3434 1.98823 10.7926 2.74689C11.2484 3.50556 11.5219 4.36887 11.6131 5.33682H8.68294C8.65039 4.76128 8.53644 4.27403 8.3411 3.87508C8.14575 3.46959 7.84949 3.16547 7.45229 2.96272C7.06161 2.75343 6.5407 2.64879 5.88956 2.64879C5.4012 2.64879 4.97471 2.74035 4.61007 2.92348C4.24543 3.10661 3.93939 3.38456 3.69196 3.75736C3.44453 4.13015 3.25895 4.60105 3.13524 5.17005C3.01803 5.7325 2.95943 6.39307 2.95943 7.15173V8.1622C2.95943 8.90124 3.01478 9.55199 3.12547 10.1145C3.23616 10.6704 3.40546 11.1413 3.63336 11.5271C3.86777 11.9065 4.16729 12.1942 4.53193 12.3905C4.90308 12.5801 5.34911 12.675 5.87002 12.675C6.48209 12.675 6.98673 12.5768 7.38392 12.3806C7.78112 12.1844 8.0839 11.8934 8.29226 11.5075C8.50714 11.1216 8.63411 10.6409 8.67318 10.0654Z" fill="#FBAB34"/>
<path d="M12.8926 9.60432V9.3983C12.8926 8.62001 13.0033 7.90386 13.2246 7.24984C13.446 6.58927 13.7683 6.017 14.1916 5.53303C14.6148 5.04905 15.1357 4.67299 15.7543 4.40484C16.3729 4.13015 17.0826 3.99281 17.8835 3.99281C18.6844 3.99281 19.3974 4.13015 20.0225 4.40484C20.6476 4.67299 21.1718 5.04905 21.595 5.53303C22.0248 6.017 22.3504 6.58927 22.5717 7.24984C22.7931 7.90386 22.9038 8.62001 22.9038 9.3983V9.60432C22.9038 10.3761 22.7931 11.0922 22.5717 11.7528C22.3504 12.4068 22.0248 12.9791 21.595 13.4696C21.1718 13.9536 20.6509 14.3296 20.0323 14.5978C19.4137 14.8659 18.704 15 17.9031 15C17.1022 15 16.3892 14.8659 15.7641 14.5978C15.1455 14.3296 14.6213 13.9536 14.1916 13.4696C13.7683 12.9791 13.446 12.4068 13.2246 11.7528C13.0033 11.0922 12.8926 10.3761 12.8926 9.60432ZM15.7055 9.3983V9.60432C15.7055 10.0491 15.7446 10.4644 15.8227 10.8502C15.9008 11.2361 16.0245 11.5762 16.1938 11.8705C16.3696 12.1583 16.5975 12.3839 16.8775 12.5474C17.1575 12.7109 17.4994 12.7927 17.9031 12.7927C18.2938 12.7927 18.6291 12.7109 18.9091 12.5474C19.1891 12.3839 19.4137 12.1583 19.583 11.8705C19.7523 11.5762 19.876 11.2361 19.9542 10.8502C20.0388 10.4644 20.0811 10.0491 20.0811 9.60432V9.3983C20.0811 8.96664 20.0388 8.56115 19.9542 8.18182C19.876 7.79594 19.7491 7.45585 19.5733 7.16154C19.404 6.86069 19.1793 6.62525 18.8993 6.4552C18.6193 6.28515 18.2807 6.20013 17.8835 6.20013C17.4864 6.20013 17.1478 6.28515 16.8678 6.4552C16.5943 6.62525 16.3696 6.86069 16.1938 7.16154C16.0245 7.45585 15.9008 7.79594 15.8227 8.18182C15.7446 8.56115 15.7055 8.96664 15.7055 9.3983Z" fill="#FBAB34"/>
<path d="M27.6018 4.18901V14.8038H24.7791V4.18901H27.6018ZM24.6033 1.4225C24.6033 1.01046 24.7466 0.670373 25.0331 0.402224C25.3196 0.134075 25.7037 0 26.1856 0C26.6609 0 27.0418 0.134075 27.3283 0.402224C27.6213 0.670373 27.7678 1.01046 27.7678 1.4225C27.7678 1.83453 27.6213 2.17462 27.3283 2.44277C27.0418 2.71092 26.6609 2.845 26.1856 2.845C25.7037 2.845 25.3196 2.71092 25.0331 2.44277C24.7466 2.17462 24.6033 1.83453 24.6033 1.4225Z" fill="#FBAB34"/>
<path d="M32.6807 6.4552V14.8038H29.8678V4.18901H32.5049L32.6807 6.4552ZM32.2705 9.12361H31.5086C31.5086 8.33878 31.6096 7.63244 31.8114 7.00458C32.0133 6.37018 32.2965 5.83061 32.6612 5.38587C33.0258 4.9346 33.4588 4.59124 33.9602 4.35579C34.4681 4.1138 35.0346 3.99281 35.6597 3.99281C36.1545 3.99281 36.6071 4.06475 37.0173 4.20863C37.4275 4.35252 37.7791 4.58143 38.0721 4.89536C38.3716 5.20929 38.5995 5.62459 38.7558 6.14127C38.9186 6.65795 39 7.28908 39 8.03466V14.8038H36.1675V8.02485C36.1675 7.55396 36.1024 7.1877 35.9722 6.9261C35.842 6.66449 35.6499 6.48136 35.3959 6.37672C35.1485 6.26553 34.8425 6.20994 34.4778 6.20994C34.1002 6.20994 33.7713 6.28515 33.4914 6.43558C33.2179 6.586 32.99 6.79529 32.8077 7.06344C32.6319 7.32505 32.4984 7.63244 32.4072 7.98561C32.3161 8.33878 32.2705 8.71812 32.2705 9.12361Z" fill="#FBAB34"/>
</svg>
