<svg width="32" height="32" viewBox="0 0 32 32" fill="none" xmlns="http://www.w3.org/2000/svg">
<path d="M28.005 12.6652V8.66358C28.005 6.82186 26.512 5.32886 24.6703 5.32886H7.32972C5.488 5.32886 3.995 6.82186 3.995 8.66358V13.3322" stroke="#FBAB34" stroke-width="1.5" stroke-linecap="round" stroke-linejoin="round"/>
<path d="M28.005 19.3347V23.3364C28.005 25.1781 26.512 26.6711 24.6703 26.6711H14.6661" stroke="#FBAB34" stroke-width="1.5" stroke-linecap="round" stroke-linejoin="round"/>
<path d="M3.99501 26.6711V18.6677" stroke="#FBAB34" stroke-width="1.5" stroke-linecap="round" stroke-linejoin="round"/>
<path d="M6.7433 17.3339V18.6678" stroke="#FBAB34" stroke-width="1.5" stroke-linecap="round" stroke-linejoin="round"/>
<path d="M6.7433 26.671V28.0049" stroke="#FBAB34" stroke-width="1.5" stroke-linecap="round" stroke-linejoin="round"/>
<path fill-rule="evenodd" clip-rule="evenodd" d="M3.995 22.6694H8.66361C9.76864 22.6694 10.6644 23.5652 10.6644 24.6703V24.6703C10.6644 25.7753 9.76864 26.6711 8.66361 26.6711H3.995V22.6694Z" stroke="#FBAB34" stroke-width="1.5" stroke-linecap="round" stroke-linejoin="round"/>
<path fill-rule="evenodd" clip-rule="evenodd" d="M3.995 18.6677H8.19675C9.30178 18.6677 10.1976 19.5635 10.1976 20.6686V20.6686C10.1976 21.7736 9.30178 22.6694 8.19675 22.6694H3.995V18.6677Z" stroke="#FBAB34" stroke-width="1.5" stroke-linecap="round" stroke-linejoin="round"/>
<path fill-rule="evenodd" clip-rule="evenodd" d="M24.6703 12.6653H28.005C28.7417 12.6653 29.3389 13.2625 29.3389 13.9992V18.0008C29.3389 18.7375 28.7417 19.3347 28.005 19.3347H24.6703C22.8286 19.3347 21.3356 17.8417 21.3356 16V16C21.3356 14.1583 22.8286 12.6653 24.6703 12.6653V12.6653Z" stroke="#FBAB34" stroke-width="1.5" stroke-linecap="round" stroke-linejoin="round"/>
<path d="M10.6644 11.9982H17.3339" stroke="#FBAB34" stroke-width="1.5" stroke-linecap="round" stroke-linejoin="round"/>
</svg>
